<svg xmlns="http://www.w3.org/2000/svg" xmlns:xlink="http://www.w3.org/1999/xlink" width="21" height="22" viewBox="0 0 21 22" fill="none"><path id="并集" fill-rule="evenodd" style="fill:#B3B3B3" transform="translate(3.5 3)  rotate(0 10.5 11)" opacity="1" d="M20.975 6.68304L21 6.68304L21 19.77C21 21 19.73 22 18.15 22L2.85 22C1.27 22 0 21 0 19.77L0 2.23C0 1 1.27 0 2.85 0L12.4576 0L12.4576 0.0209625C12.9202 0.0202824 13.3772 0.162546 13.718 0.429849L20.458 5.69985C20.7911 5.96639 20.9733 6.32173 20.975 6.68304Z M19.22 8.07974L19.22 19.77C19.22 19.83 19.21 19.89 19.2 19.94C19.18 20 19.16 20.05 19.14 20.1C19.11 20.15 19.08 20.19 19.04 20.24C19 20.28 18.96 20.32 18.91 20.36C18.86 20.4 18.81 20.44 18.75 20.47C18.69 20.5 18.63 20.52 18.57 20.54C18.5 20.56 18.44 20.58 18.37 20.59C18.3 20.6 18.23 20.61 18.15 20.61L2.85 20.61C2.77 20.61 2.7 20.6 2.63 20.59C2.56 20.58 2.5 20.56 2.43 20.54C2.37 20.52 2.31 20.5 2.25 20.47C2.19 20.44 2.14 20.4 2.09 20.36C2.04 20.32 2 20.28 1.96 20.24C1.92 20.19 1.89 20.15 1.86 20.1C1.84 20.05 1.82 20 1.8 19.94C1.79 19.89 1.78 19.83 1.78 19.77L1.78 2.23C1.78 2.17 1.79 2.11 1.8 2.06C1.82 2 1.84 1.95 1.86 1.9C1.89 1.85 1.92 1.81 1.96 1.76C2 1.72 2.04 1.68 2.09 1.64C2.14 1.6 2.19 1.56 2.25 1.53C2.31 1.5 2.37 1.48 2.43 1.46C2.5 1.44 2.56 1.42 2.63 1.41C2.7 1.4 2.77 1.39 2.85 1.39L10.6781 1.39C10.678 1.39661 10.678 1.40323 10.678 1.40985L10.678 6.67985C10.678 7.44985 11.478 8.07985 12.458 8.07985L19.198 8.07985L19.22 8.07974Z M12.458 1.40985L19.198 6.67985L12.458 6.67985L12.458 1.40985Z " /></svg>